<svg width="243" height="74" viewBox="0 0 243 74" fill="none" xmlns="http://www.w3.org/2000/svg">
<path d="M88.7358 46.586C86.0615 43.9067 84.7244 40.6532 84.7244 36.8256C84.7244 32.9981 86.0615 29.7446 88.7358 27.0653C91.4358 24.3605 94.7144 23.0081 98.5715 23.0081C102.429 23.0081 105.707 24.3605 108.407 27.0653C111.107 29.7446 112.457 32.9981 112.457 36.8256C112.457 40.6532 111.107 43.9067 108.407 46.586C105.707 49.2398 102.429 50.5667 98.5715 50.5667C94.7144 50.5667 91.4358 49.2398 88.7358 46.586ZM92.3229 30.5867C90.6001 32.3218 89.7386 34.4015 89.7386 36.8256C89.7386 39.2498 90.6001 41.3167 92.3229 43.0263C94.0715 44.736 96.1544 45.5908 98.5715 45.5908C101.014 45.5908 103.097 44.736 104.82 43.0263C106.569 41.2912 107.443 39.2243 107.443 36.8256C107.443 34.4015 106.569 32.3218 104.82 30.5867C103.072 28.8515 100.989 27.9839 98.5715 27.9839C96.1544 27.9839 94.0715 28.8515 92.3229 30.5867ZM118.404 49.4567V35.6008C118.404 35.3967 118.468 35.2308 118.597 35.1032C118.751 34.9501 118.931 34.8736 119.137 34.8736H120.603C120.911 34.8736 121.13 35.0267 121.258 35.3329L121.798 36.7491C123.213 35.2436 125.026 34.4908 127.237 34.4908C129.551 34.4908 131.274 35.2181 132.406 36.6725C133.537 38.127 134.103 39.9387 134.103 42.1077V49.4567C134.103 49.6353 134.026 49.8012 133.871 49.9543C133.743 50.1074 133.576 50.1839 133.37 50.1839H130.207C130.001 50.1839 129.821 50.1201 129.667 49.9925C129.538 49.8394 129.474 49.6608 129.474 49.4567V41.8781C129.474 40.8829 129.217 40.0918 128.703 39.505C128.214 38.9181 127.507 38.6246 126.581 38.6246C125.656 38.6246 124.871 38.8798 124.228 39.3901C123.611 39.875 123.187 40.4236 122.956 41.036V49.4567C122.956 49.9415 122.634 50.1839 121.991 50.1839H119.137C118.957 50.1839 118.79 50.1074 118.636 49.9543C118.481 49.8012 118.404 49.6353 118.404 49.4567ZM139.948 42.5287C139.948 40.3343 140.694 38.446 142.186 36.8639C143.677 35.2818 145.554 34.4908 147.817 34.4908C149.823 34.4908 151.52 35.167 152.908 36.5194C154.323 37.8719 155.03 39.5687 155.03 41.6101C155.03 41.9418 155.004 42.2863 154.953 42.6436C154.901 43.0774 154.657 43.2943 154.22 43.2943H144.346C144.397 44.1619 144.757 44.9401 145.426 45.6291C146.12 46.2925 146.994 46.6243 148.048 46.6243C149.154 46.6243 150.157 46.3053 151.057 45.6674C151.494 45.4122 151.828 45.4122 152.06 45.6674L153.641 47.4663C154.001 47.8236 153.988 48.1553 153.603 48.4615C152.086 49.865 150.17 50.5667 147.856 50.5667C145.567 50.5667 143.677 49.7884 142.186 48.2319C140.694 46.6753 139.948 44.7743 139.948 42.5287ZM144.693 40.615H150.517C150.466 39.9005 150.157 39.2881 149.591 38.7777C149.051 38.2674 148.421 38.0122 147.701 38.0122C146.93 38.0122 146.261 38.2674 145.696 38.7777C145.13 39.2625 144.796 39.875 144.693 40.615ZM159.847 47.5812C159.487 47.2239 159.423 46.8412 159.655 46.4329L161.043 44.0598C161.197 43.8046 161.416 43.6643 161.699 43.6387C161.982 43.5877 162.2 43.6387 162.355 43.7918L162.547 43.9067C162.676 44.0087 162.817 44.1108 162.972 44.2129C163.152 44.315 163.37 44.4425 163.627 44.5956C163.885 44.7487 164.142 44.9019 164.399 45.055C164.656 45.1825 164.952 45.3229 165.286 45.476C165.62 45.6036 165.942 45.7184 166.25 45.8205C166.559 45.9225 166.88 46.0119 167.215 46.0884C167.549 46.1394 167.87 46.165 168.179 46.165C169.182 46.165 170.017 45.8843 170.686 45.3229C171.355 44.736 171.689 44.0343 171.689 43.2177C171.689 42.2736 171.29 41.4443 170.493 40.7298C169.696 39.9898 168.462 39.2881 166.79 38.6246C164.63 37.757 162.882 36.6725 161.545 35.3712C160.207 34.0698 159.539 32.3984 159.539 30.357C159.539 28.4177 160.272 26.7081 161.737 25.2281C163.229 23.7481 165.389 23.0081 168.217 23.0081C171.072 23.0081 173.643 23.8629 175.932 25.5725C176.112 25.6746 176.227 25.866 176.279 26.1467C176.33 26.4274 176.292 26.657 176.163 26.8356L174.697 29.0174C174.286 29.6298 173.836 29.7829 173.347 29.4767C171.085 28.0732 169.297 27.3715 167.986 27.3715C166.957 27.3715 166.135 27.6522 165.517 28.2136C164.9 28.775 164.592 29.3874 164.592 30.0508C164.592 30.9439 164.952 31.7222 165.672 32.3856C166.392 33.0491 167.549 33.6998 169.143 34.3377C170.249 34.7715 171.2 35.2181 171.997 35.6774C172.82 36.1112 173.656 36.6725 174.505 37.3615C175.379 38.025 176.047 38.8415 176.51 39.8112C176.973 40.7553 177.205 41.8143 177.205 42.9881C177.205 45.055 176.382 46.8412 174.736 48.3467C173.09 49.8267 170.956 50.5667 168.333 50.5667C166.867 50.5667 165.466 50.3498 164.129 49.916C162.817 49.4822 161.879 49.0867 161.313 48.7294C160.747 48.3467 160.259 47.9639 159.847 47.5812ZM182.263 42.5287C182.263 40.3343 183.008 38.446 184.5 36.8639C185.991 35.2818 187.868 34.4908 190.131 34.4908C192.137 34.4908 193.834 35.167 195.223 36.5194C196.637 37.8719 197.344 39.5687 197.344 41.6101C197.344 41.9418 197.318 42.2863 197.267 42.6436C197.215 43.0774 196.971 43.2943 196.534 43.2943H186.66C186.711 44.1619 187.071 44.9401 187.74 45.6291C188.434 46.2925 189.308 46.6243 190.363 46.6243C191.468 46.6243 192.471 46.3053 193.371 45.6674C193.808 45.4122 194.143 45.4122 194.374 45.6674L195.955 47.4663C196.315 47.8236 196.303 48.1553 195.917 48.4615C194.4 49.865 192.484 50.5667 190.17 50.5667C187.881 50.5667 185.991 49.7884 184.5 48.2319C183.008 46.6753 182.263 44.7743 182.263 42.5287ZM187.007 40.615H192.831C192.78 39.9005 192.471 39.2881 191.905 38.7777C191.365 38.2674 190.735 38.0122 190.015 38.0122C189.244 38.0122 188.575 38.2674 188.01 38.7777C187.444 39.2625 187.11 39.875 187.007 40.615ZM203.296 49.4567V35.6008C203.296 35.3967 203.36 35.2308 203.489 35.1032C203.643 34.9501 203.823 34.8736 204.029 34.8736H205.495C205.803 34.8736 206.022 35.0267 206.15 35.3329L206.69 36.7491C208.105 35.2436 209.917 34.4908 212.129 34.4908C214.443 34.4908 216.166 35.2181 217.297 36.6725C218.429 38.127 218.995 39.9387 218.995 42.1077V49.4567C218.995 49.6353 218.917 49.8012 218.763 49.9543C218.635 50.1074 218.467 50.1839 218.262 50.1839H215.099C214.893 50.1839 214.713 50.1201 214.559 49.9925C214.43 49.8394 214.366 49.6608 214.366 49.4567V41.8781C214.366 40.8829 214.109 40.0918 213.595 39.505C213.106 38.9181 212.399 38.6246 211.473 38.6246C210.547 38.6246 209.763 38.8798 209.12 39.3901C208.503 39.875 208.079 40.4236 207.847 41.036V49.4567C207.847 49.9415 207.526 50.1839 206.883 50.1839H204.029C203.849 50.1839 203.682 50.1074 203.527 49.9543C203.373 49.8012 203.296 49.6353 203.296 49.4567ZM224.84 42.5287C224.84 40.2577 225.547 38.3567 226.962 36.8256C228.376 35.2691 230.215 34.4908 232.477 34.4908C233.583 34.4908 234.727 34.7205 235.91 35.1798V24.1181C235.91 23.9394 235.975 23.7736 236.103 23.6205C236.257 23.4674 236.437 23.3908 236.643 23.3908H239.922C240.102 23.3908 240.269 23.4674 240.423 23.6205C240.577 23.7736 240.654 23.9394 240.654 24.1181V49.4567C240.654 49.6353 240.577 49.8012 240.423 49.9543C240.269 50.1074 240.102 50.1839 239.922 50.1839H238.417C238.057 50.1839 237.813 49.9415 237.685 49.4567L237.299 48.2701C237.17 48.4487 236.965 48.6656 236.682 48.9208C236.425 49.176 235.859 49.5205 234.985 49.9543C234.11 50.3625 233.197 50.5667 232.246 50.5667C230.163 50.5667 228.402 49.7884 226.962 48.2319C225.547 46.6498 224.84 44.7487 224.84 42.5287ZM230.356 39.7729C229.662 40.5129 229.315 41.4315 229.315 42.5287C229.315 43.626 229.649 44.5574 230.317 45.3229C230.986 46.0629 231.822 46.4329 232.825 46.4329C233.725 46.4329 234.445 46.1777 234.985 45.6674C235.525 45.1315 235.885 44.5574 236.065 43.945V39.505C235.345 38.9181 234.342 38.6246 233.056 38.6246C231.976 38.6246 231.076 39.0074 230.356 39.7729Z" fill="black"/>
<path d="M37.2857 74C57.878 74 74.5714 57.4345 74.5714 37C74.5714 16.5655 57.878 0 37.2857 0C16.6934 0 0 16.5655 0 37C0 57.4345 16.6934 74 37.2857 74Z" fill="black"/>
<path d="M51.8572 33.5977C56.8277 33.5977 60.8572 29.5991 60.8572 24.6666C60.8572 19.7342 56.8277 15.7356 51.8572 15.7356C46.8866 15.7356 42.8572 19.7342 42.8572 24.6666C42.8572 29.5991 46.8866 33.5977 51.8572 33.5977Z" fill="white"/>
</svg>
